<?xml version="1.0" encoding="UTF-8"?>
<svg width="20" height="20" fill="none" version="1.1" viewBox="0 0 20 20" xml:space="preserve" xmlns="http://www.w3.org/2000/svg" xmlns:xlink="http://www.w3.org/1999/xlink"><g><g id="g2"><path d="m4 4.9999c0-1.007 0.875-1.755 1.9-2.223 1.2983-0.53942 2.6943-0.80398 4.1-0.777 1.4057-0.02698 2.8017 0.23758 4.1 0.777 1.025 0.468 1.9 1.216 1.9 2.223v4.2071c-0.3223-0.09115-0.6566-0.15366-1-0.18461v-2.3225c-0.2806 0.20634-0.5823 0.38232-0.9 0.525-1.2985 0.53874-2.6945 0.80262-4.1 0.775-1.4057 0.02698-2.8017-0.23758-4.1-0.777-0.31764-0.14204-0.61932-0.31736-0.9-0.523v8.3c0 0.374 0.356 0.875 1.318 1.313 1.0436 0.4283 2.1559 0.6606 3.2814 0.6865 0.18327 0.3586 0.40478 0.6945 0.65908 1.0022-0.0861 5e-4 -0.1723 0-0.2585-0.0017-1.4057 0.027-2.8017-0.2376-4.1-0.777-1.025-0.468-1.9-1.216-1.9-2.223zm1 0c0 0.374 0.356 0.875 1.318 1.313 1.1672 0.47906 2.4205 0.71291 3.682 0.687 1.2615 0.02591 2.5148-0.20794 3.682-0.687 0.962-0.438 1.318-0.939 1.318-1.313s-0.356-0.875-1.318-1.313c-1.1672-0.47906-2.4205-0.7129-3.682-0.687-1.2615-0.0259-2.5148 0.20794-3.682 0.687-0.962 0.438-1.318 0.939-1.318 1.313zm14 9.5001c0 2.4853-2.0147 4.5-4.5 4.5s-4.5-2.0147-4.5-4.5 2.0147-4.5 4.5-4.5 4.5 2.0147 4.5 4.5z" fill="#877a46"/><g transform="matrix(.33649 0 0 .33649 10.671 10.414)" fill="#d7c583"><path d="m11.513 2.0478c-0.2303-0.08637-0.4883-0.05431-0.6905 0.0858s-0.3228 0.37046-0.3228 0.61644v12.127c-0.6848-0.5489-1.554-0.8773-2.5-0.8773-2.2091 0-4 1.7909-4 4s1.7909 4 4 4c2.0613 0 3.7584-1.5591 3.9763-3.5624 0.0155-0.06 0.0237-0.1228 0.0237-0.1876v-9.4178l6.9867 2.62c0.2303 0.0863 0.4883 0.0543 0.6905-0.0859 0.2022-0.1401 0.3228-0.3704 0.3228-0.6164v-3.2675c0-1.3548-0.8404-2.5674-2.1088-3.0431zm-1.0133 15.952c0 1.3807-1.1193 2.5-2.5 2.5s-2.5-1.1193-2.5-2.5 1.1193-2.5 2.5-2.5 2.5 1.1193 2.5 2.5zm8-8.3322-6.5-2.4375v-3.398l5.3645 2.0117c0.683 0.25614 1.1355 0.9091 1.1355 1.6386z" fill="#d7c583"/></g></g></g></svg>
