<?xml version="1.0" encoding="UTF-8"?>
<svg width="20" height="20" fill="none" version="1.1" viewBox="0 0 20 20" xml:space="preserve" xmlns="http://www.w3.org/2000/svg" xmlns:xlink="http://www.w3.org/1999/xlink"><g><g id="g2"><path d="m4 4.9999c0-1.007 0.875-1.755 1.9-2.223 1.2983-0.53942 2.6943-0.80398 4.1-0.777 1.4057-0.02698 2.8017 0.23758 4.1 0.777 1.025 0.468 1.9 1.216 1.9 2.223v4.2071c-0.3223-0.09115-0.6566-0.15366-1-0.18461v-2.3225c-0.2806 0.20634-0.5823 0.38232-0.9 0.525-1.2985 0.53874-2.6945 0.80262-4.1 0.775-1.4057 0.02698-2.8017-0.23758-4.1-0.777-0.31764-0.14204-0.61932-0.31736-0.9-0.523v8.3c0 0.374 0.356 0.875 1.318 1.313 1.0436 0.4283 2.1559 0.6606 3.2814 0.6865 0.18327 0.3586 0.40478 0.6945 0.65908 1.0022-0.0861 5e-4 -0.1723 0-0.2585-0.0017-1.4057 0.027-2.8017-0.2376-4.1-0.777-1.025-0.468-1.9-1.216-1.9-2.223zm1 0c0 0.374 0.356 0.875 1.318 1.313 1.1672 0.47906 2.4205 0.71291 3.682 0.687 1.2615 0.02591 2.5148-0.20794 3.682-0.687 0.962-0.438 1.318-0.939 1.318-1.313s-0.356-0.875-1.318-1.313c-1.1672-0.47906-2.4205-0.7129-3.682-0.687-1.2615-0.0259-2.5148 0.20794-3.682 0.687-0.962 0.438-1.318 0.939-1.318 1.313zm14 9.5001c0 2.4853-2.0147 4.5-4.5 4.5s-4.5-2.0147-4.5-4.5 2.0147-4.5 4.5-4.5 4.5 2.0147 4.5 4.5z" clip-path="none" fill="#d7c583"/><path d="m14.545 11.103c-0.07749-0.02906-0.16431-0.01828-0.23235 0.02887-0.06804 0.04715-0.10862 0.12466-0.10862 0.20743v4.0807c-0.23043-0.1847-0.52293-0.2952-0.84123-0.2952-0.74336 0-1.346 0.60262-1.346 1.346s0.60261 1.346 1.346 1.346c0.69361 0 1.2647-0.52462 1.338-1.1987 0.0052-0.02019 8e-3 -0.04132 8e-3 -0.06313v-3.169l2.351 0.88163c0.07749 0.02904 0.16431 0.01827 0.23235-0.0289 0.06804-0.04714 0.10862-0.12464 0.10862-0.20741v-1.0995c0-0.45586-0.28279-0.86391-0.7096-1.024zm-0.34097 5.3678c0 0.4646-0.37663 0.84123-0.84123 0.84123s-0.84123-0.37664-0.84123-0.84123 0.37663-0.84123 0.84123-0.84123 0.84123 0.37664 0.84123 0.84123zm2.6919-2.8037-2.1872-0.8202v-1.1434l1.8051 0.67692c0.22982 0.08619 0.38209 0.30591 0.38209 0.55137z" fill="#645a33"/></g></g></svg>
